<?xml version="1.0" encoding="UTF-8"?>
<svg xmlns="http://www.w3.org/2000/svg" width="40" height="40" viewBox="0 0 40 40" fill="none">
    <g clip-path="url(#clip0_107_7)">
        <path
            d="M19.9998 4.80005C11.5998 4.80005 4.7998 11.6 4.7998 20C4.7998 28.4 11.5998 35.2 19.9998 35.2C28.3998 35.2 35.1998 28.4 35.1998 20C35.1998 11.6 28.3998 4.80005 19.9998 4.80005ZM19.9998 33.6C12.4798 33.6 6.3998 27.52 6.3998 20C6.3998 12.48 12.4798 6.40005 19.9998 6.40005C27.5198 6.40005 33.5998 12.48 33.5998 20C33.5998 27.52 27.5198 33.6 19.9998 33.6ZM29.1598 14.84C28.8398 14.52 28.3598 14.52 28.0398 14.84L17.8398 25.08L13.5598 20.8C13.2398 20.48 12.7198 20.48 12.4398 20.8C12.1198 21.12 12.1198 21.64 12.4398 21.92L17.2798 26.76C17.4398 26.92 17.6398 27 17.8398 27C18.0398 27 18.2398 26.92 18.3998 26.76L29.1598 15.96C29.4798 15.64 29.4798 15.16 29.1598 14.84V14.84Z"
            fill="#060885"></path>
        <path d="M657.6 -484V189.6H-56.0002V-484H657.6ZM660.8 -487.2H-59.2002V192.8H660.8V-487.2Z"
            fill="#060885"></path>
    </g>
    <defs>
        <clipPath id="clip0_107_7">
            <rect width="40" height="40" fill="white"></rect>
        </clipPath>
    </defs>
</svg> 